<?xml version="1.0" encoding="utf-8"?>
<!-- Generator: Adobe Illustrator 27.5.0, SVG Export Plug-In . SVG Version: 6.00 Build 0)  -->
<svg version="1.1" xmlns="http://www.w3.org/2000/svg" xmlns:xlink="http://www.w3.org/1999/xlink" x="0px" y="0px"
	 viewBox="0 0 500 500" style="enable-background:new 0 0 500 500;" xml:space="preserve">
<g id="Background_Complete">
	<g>
		<g>
			<g>
				<rect x="60.605" y="295" style="fill:#EBEBEB;" width="48.653" height="12.871"/>
			</g>
		</g>
		<g>
			<g>
				<g>
					<path style="fill:#E0E0E0;" d="M88.685,321.428c-0.005-0.005-0.01-0.084-0.015-0.234c-0.004-0.172-0.009-0.389-0.016-0.66
						c-0.009-0.606-0.021-1.45-0.036-2.533c-0.02-2.222-0.048-5.416-0.083-9.444l0.151,0.151
						c-11.109,0.022-28.776,0.057-48.65,0.097c0.11-0.11-0.25,0.247,0.245-0.247v0.003v0.007v0.013v0.026v0.052v0.104v0.207l0,0.414
						v0.825c0,0.549,0,1.096,0,1.642c0,1.091-0.001,2.174-0.001,3.248c-0.001,2.148-0.003,4.261-0.004,6.331l-0.242-0.242
						c13.854,0.044,25.976,0.083,34.671,0.11c4.331,0.029,7.806,0.053,10.234,0.069c1.181,0.014,2.105,0.024,2.767,0.032
						c0.298,0.007,0.536,0.012,0.724,0.016C88.593,321.418,88.68,321.423,88.685,321.428c0.005,0.005-0.071,0.01-0.225,0.016
						c-0.18,0.004-0.408,0.009-0.694,0.016c-0.649,0.008-1.557,0.018-2.715,0.032c-2.414,0.016-5.871,0.04-10.178,0.069
						c-8.737,0.028-20.919,0.066-34.84,0.11l-0.242,0.001l0-0.243c-0.001-2.07-0.003-4.183-0.004-6.331
						c0-1.074-0.001-2.157-0.001-3.248c0-0.545,0-1.093,0-1.642l0-0.825v-0.414v-0.207v-0.104v-0.052v-0.026v-0.013v-0.007v-0.003
						c0.496-0.496,0.139-0.138,0.251-0.248c19.874,0.04,37.541,0.075,48.65,0.097l0.152,0l-0.001,0.151
						c-0.036,4.066-0.064,7.29-0.083,9.534c-0.016,1.068-0.028,1.902-0.037,2.499c-0.006,0.26-0.012,0.468-0.016,0.634
						C88.695,321.364,88.69,321.433,88.685,321.428z"/>
				</g>
			</g>
		</g>
	</g>
	<g>
		<g>
			<g>
				<rect x="245.916" y="25.521" style="fill:#EBEBEB;" width="48.653" height="12.871"/>
			</g>
		</g>
		<g>
			<g>
				<g>
					<path style="fill:#E0E0E0;" d="M273.996,51.949c-0.005-0.005-0.01-0.084-0.015-0.234c-0.004-0.172-0.009-0.389-0.016-0.66
						c-0.009-0.606-0.021-1.45-0.036-2.533c-0.02-2.222-0.048-5.416-0.083-9.444l0.151,0.151
						c-11.109,0.022-28.776,0.058-48.65,0.097c0.11-0.11-0.25,0.247,0.245-0.248v0.003v0.007V39.1v0.026v0.052v0.104v0.207l0,0.414
						v0.825c0,0.549,0,1.097,0,1.642c0,1.091-0.001,2.174-0.001,3.248c-0.001,2.148-0.003,4.261-0.004,6.331l-0.242-0.242
						c13.854,0.044,25.976,0.083,34.671,0.11c4.331,0.029,7.806,0.053,10.234,0.069c1.181,0.014,2.105,0.024,2.767,0.032
						c0.298,0.007,0.536,0.012,0.724,0.016C273.904,51.938,273.991,51.943,273.996,51.949c0.005,0.005-0.071,0.01-0.225,0.016
						c-0.18,0.004-0.408,0.009-0.694,0.016c-0.649,0.008-1.557,0.018-2.715,0.032c-2.414,0.016-5.871,0.04-10.178,0.069
						c-8.737,0.028-20.919,0.066-34.84,0.11l-0.242,0.001l0-0.243c-0.001-2.07-0.003-4.183-0.004-6.331
						c0-1.074-0.001-2.157-0.001-3.248c0-0.545,0-1.093,0-1.642l0-0.825v-0.414v-0.207v-0.104v-0.052V39.1v-0.013v-0.007v-0.003
						c0.496-0.496,0.139-0.138,0.251-0.248c19.874,0.04,37.541,0.075,48.65,0.097l0.152,0l-0.001,0.151
						c-0.036,4.066-0.064,7.29-0.083,9.533c-0.016,1.068-0.028,1.902-0.037,2.499c-0.006,0.26-0.012,0.468-0.016,0.634
						C274.006,51.885,274.001,51.954,273.996,51.949z"/>
				</g>
			</g>
		</g>
	</g>
	<g>
		<g>
			<g>
				<g>
					<path style="fill:#E0E0E0;" d="M305.42,327.675c-0.005-0.005-0.01-0.084-0.015-0.234c-0.004-0.172-0.009-0.389-0.016-0.66
						c-0.009-0.606-0.021-1.45-0.037-2.533c-0.02-2.222-0.048-5.416-0.083-9.444l0.151,0.151
						c-11.109,0.022-28.776,0.057-48.65,0.097c0.11-0.11-0.25,0.247,0.245-0.248v0.003v0.007v0.013v0.026v0.052v0.103l0,0.207v0.414
						v0.825c0,0.549,0,1.097,0,1.642c0,1.091-0.001,2.174-0.001,3.248c-0.001,2.148-0.003,4.261-0.004,6.331l-0.242-0.242
						c13.854,0.044,25.977,0.083,34.671,0.11c4.331,0.029,7.806,0.053,10.234,0.069c1.181,0.014,2.105,0.024,2.767,0.032
						c0.298,0.006,0.536,0.012,0.724,0.016C305.329,327.664,305.415,327.67,305.42,327.675c0.005,0.005-0.071,0.01-0.225,0.016
						c-0.18,0.004-0.408,0.009-0.694,0.016c-0.649,0.008-1.557,0.018-2.715,0.032c-2.414,0.016-5.871,0.04-10.178,0.069
						c-8.737,0.028-20.919,0.066-34.84,0.11l-0.242,0.001l0-0.243c-0.001-2.07-0.003-4.183-0.004-6.331
						c0-1.074-0.001-2.157-0.001-3.248c0-0.545,0-1.093,0-1.642l0-0.825v-0.414v-0.207v-0.103v-0.052v-0.026v-0.013v-0.007v-0.003
						c0.496-0.496,0.139-0.138,0.251-0.248c19.874,0.04,37.541,0.075,48.65,0.097l0.152,0l-0.001,0.151
						c-0.036,4.066-0.064,7.291-0.083,9.534c-0.016,1.068-0.028,1.902-0.037,2.499c-0.007,0.26-0.012,0.468-0.016,0.634
						C305.43,327.611,305.425,327.68,305.42,327.675z"/>
				</g>
			</g>
		</g>
		<g>
			<g>
				<g>
					<path style="fill:#E0E0E0;" d="M312.017,314.804c-0.006-0.006-0.012-0.089-0.019-0.245c-0.005-0.185-0.012-0.409-0.019-0.682
						c-0.011-0.633-0.026-1.494-0.044-2.581c-0.023-2.257-0.056-5.444-0.096-9.363l0.178,0.178
						c-7.573,0.018-17.875,0.043-29.23,0.07c-0.223,0.221,0.299-0.302,0.246-0.247v0.003v0.007v0.013v0.026v0.053v0.106l0,0.211
						v0.422l0,0.841c0,0.56,0,1.116-0.001,1.669c-0.001,1.106-0.001,2.199-0.002,3.276c-0.003,2.153-0.006,4.241-0.009,6.241
						l-0.236-0.236c8.439,0.045,15.704,0.084,20.911,0.112c2.568,0.027,4.626,0.049,6.091,0.065c0.684,0.012,1.229,0.022,1.643,0.03
						C311.807,314.785,312.007,314.794,312.017,314.804c0.01,0.01-0.172,0.019-0.531,0.029c-0.401,0.007-0.93,0.017-1.594,0.03
						c-1.452,0.016-3.492,0.038-6.038,0.065c-5.247,0.028-12.567,0.067-21.07,0.112l-0.236,0.001l0-0.237
						c-0.003-2-0.006-4.088-0.009-6.241c-0.001-1.077-0.001-2.17-0.002-3.276c0-0.553,0-1.11-0.001-1.669l0-0.841v-0.422v-0.211
						v-0.106v-0.053v-0.026v-0.013v-0.007v-0.003c-0.054,0.052,0.47-0.471,0.25-0.249c11.355,0.027,21.657,0.052,29.23,0.07l0.18,0
						l-0.002,0.178c-0.04,3.965-0.073,7.189-0.096,9.472c-0.019,1.07-0.034,1.917-0.044,2.541
						C312.042,314.521,312.029,314.816,312.017,314.804z"/>
				</g>
			</g>
		</g>
	</g>
	<g>
		<g>
			<g>
				<g>
					<path style="fill:#E0E0E0;" d="M76.073,143.429c-0.005-0.005-0.01-0.084-0.015-0.234c-0.004-0.172-0.009-0.389-0.016-0.66
						c-0.009-0.606-0.021-1.45-0.037-2.533c-0.02-2.222-0.048-5.416-0.083-9.444l0.151,0.151
						c-11.109,0.022-28.776,0.057-48.65,0.097c0.11-0.11-0.25,0.247,0.245-0.248v0.003v0.007v0.013v0.026v0.052v0.104l0,0.207v0.414
						v0.825c0,0.549,0,1.097,0,1.642c0,1.091-0.001,2.174-0.001,3.248c-0.001,2.148-0.003,4.261-0.004,6.331l-0.242-0.242
						c13.854,0.044,25.977,0.083,34.671,0.11c4.331,0.029,7.806,0.053,10.234,0.069c1.181,0.014,2.106,0.024,2.767,0.032
						c0.298,0.006,0.536,0.012,0.724,0.016C75.981,143.419,76.068,143.424,76.073,143.429c0.005,0.005-0.071,0.01-0.225,0.016
						c-0.18,0.004-0.408,0.009-0.694,0.016c-0.649,0.008-1.556,0.018-2.715,0.032c-2.414,0.016-5.871,0.04-10.178,0.069
						c-8.737,0.028-20.919,0.066-34.84,0.11l-0.242,0.001l0-0.243c-0.001-2.07-0.003-4.183-0.004-6.331
						c0-1.074-0.001-2.157-0.001-3.248c0-0.545,0-1.093,0-1.642l0-0.825v-0.414v-0.207v-0.104v-0.052v-0.026v-0.013v-0.007v-0.003
						c0.496-0.496,0.139-0.137,0.251-0.248c19.874,0.04,37.541,0.075,48.65,0.097l0.152,0l-0.001,0.151
						c-0.036,4.066-0.064,7.29-0.083,9.534c-0.016,1.068-0.028,1.901-0.037,2.499c-0.007,0.26-0.012,0.468-0.016,0.634
						C76.083,143.365,76.078,143.434,76.073,143.429z"/>
				</g>
			</g>
		</g>
		<g>
			<g>
				<g>
					<path style="fill:#E0E0E0;" d="M82.669,130.558c-0.006-0.006-0.012-0.089-0.019-0.245c-0.005-0.185-0.012-0.409-0.019-0.682
						c-0.011-0.633-0.026-1.494-0.044-2.581c-0.023-2.257-0.056-5.444-0.096-9.363l0.178,0.178
						c-7.573,0.018-17.875,0.043-29.23,0.07c-0.223,0.221,0.299-0.302,0.246-0.247v0.003v0.007v0.013v0.026v0.053v0.106l0,0.211
						v0.422l0,0.841c0,0.56,0,1.116-0.001,1.669c-0.001,1.106-0.001,2.199-0.002,3.276c-0.003,2.153-0.006,4.241-0.009,6.241
						l-0.236-0.236c8.439,0.045,15.704,0.084,20.911,0.112c2.568,0.028,4.626,0.049,6.091,0.065c0.684,0.012,1.229,0.022,1.643,0.03
						C82.459,130.539,82.66,130.548,82.669,130.558c0.01,0.01-0.172,0.019-0.531,0.029c-0.401,0.007-0.93,0.017-1.594,0.03
						c-1.452,0.016-3.492,0.038-6.037,0.065c-5.247,0.028-12.567,0.067-21.07,0.112l-0.236,0.001l0-0.237
						c-0.003-2-0.006-4.088-0.009-6.241c-0.001-1.077-0.002-2.17-0.002-3.276c0-0.553,0-1.11-0.001-1.669l0-0.841v-0.422v-0.211
						v-0.106v-0.053v-0.026v-0.013v-0.007v-0.003c-0.054,0.052,0.47-0.471,0.25-0.249c11.355,0.027,21.657,0.052,29.23,0.07l0.18,0
						l-0.002,0.178c-0.04,3.965-0.073,7.189-0.096,9.472c-0.019,1.07-0.034,1.917-0.044,2.541
						C82.694,130.275,82.682,130.571,82.669,130.558z"/>
				</g>
			</g>
		</g>
	</g>
	<g>
		<g>
			<g>
				<g>
					<path style="fill:#E0E0E0;" d="M474.341,170.566c-0.005-0.005-0.01-0.084-0.015-0.234c-0.004-0.172-0.009-0.389-0.016-0.66
						c-0.009-0.606-0.021-1.45-0.037-2.533c-0.02-2.222-0.048-5.416-0.083-9.444l0.151,0.151
						c-11.109,0.022-28.776,0.057-48.65,0.097c0.11-0.11-0.25,0.247,0.245-0.248v0.003v0.007v0.013v0.026v0.052v0.104l0,0.207v0.414
						v0.825c0,0.549,0,1.097,0,1.642c0,1.091-0.001,2.174-0.001,3.248c-0.001,2.148-0.003,4.261-0.004,6.331l-0.242-0.242
						c13.854,0.044,25.977,0.083,34.671,0.11c4.331,0.029,7.806,0.053,10.234,0.069c1.181,0.014,2.105,0.024,2.767,0.032
						c0.298,0.006,0.536,0.012,0.724,0.016C474.249,170.555,474.336,170.56,474.341,170.566c0.005,0.005-0.071,0.01-0.225,0.016
						c-0.18,0.004-0.408,0.009-0.694,0.016c-0.649,0.008-1.556,0.018-2.715,0.032c-2.414,0.016-5.871,0.04-10.178,0.069
						c-8.737,0.028-20.919,0.066-34.84,0.11l-0.242,0.001l0-0.243c-0.001-2.07-0.003-4.183-0.004-6.331
						c0-1.074-0.001-2.157-0.001-3.248c0-0.545,0-1.093,0-1.642l0-0.825v-0.414v-0.207v-0.104v-0.052v-0.026v-0.013v-0.007v-0.003
						c0.496-0.496,0.139-0.137,0.251-0.248c19.874,0.04,37.541,0.075,48.65,0.097l0.152,0l-0.001,0.151
						c-0.036,4.066-0.064,7.29-0.083,9.534c-0.016,1.068-0.028,1.902-0.037,2.499c-0.007,0.26-0.012,0.468-0.016,0.634
						C474.351,170.502,474.346,170.571,474.341,170.566z"/>
				</g>
			</g>
		</g>
		<g>
			<g>
				<g>
					<path style="fill:#E0E0E0;" d="M480.938,157.695c-0.006-0.006-0.012-0.089-0.019-0.245c-0.005-0.185-0.012-0.409-0.019-0.682
						c-0.011-0.633-0.026-1.494-0.044-2.581c-0.023-2.257-0.056-5.444-0.096-9.363l0.178,0.178
						c-7.573,0.018-17.875,0.043-29.23,0.07c-0.223,0.221,0.299-0.302,0.246-0.247v0.003v0.007v0.013v0.027v0.053v0.106l0,0.212
						v0.422l0,0.842c0,0.559,0,1.116-0.001,1.669c-0.001,1.106-0.001,2.199-0.002,3.276c-0.003,2.153-0.006,4.241-0.009,6.241
						l-0.236-0.236c8.439,0.045,15.704,0.084,20.911,0.112c2.568,0.028,4.626,0.049,6.091,0.065c0.684,0.012,1.229,0.022,1.643,0.03
						C480.727,157.675,480.928,157.685,480.938,157.695c0.01,0.01-0.172,0.019-0.531,0.029c-0.401,0.007-0.93,0.017-1.594,0.03
						c-1.452,0.016-3.492,0.038-6.038,0.065c-5.247,0.028-12.567,0.067-21.07,0.112l-0.236,0.001l0-0.237
						c-0.003-2-0.006-4.088-0.009-6.241c-0.001-1.077-0.001-2.17-0.002-3.276c0-0.553,0-1.11-0.001-1.669l0-0.842v-0.422v-0.212
						v-0.106v-0.053v-0.027v-0.013v-0.007v-0.003c-0.054,0.052,0.47-0.471,0.25-0.249c11.355,0.027,21.657,0.052,29.23,0.07
						l0.18,0.001l-0.002,0.178c-0.04,3.965-0.073,7.189-0.096,9.472c-0.019,1.07-0.034,1.917-0.044,2.541
						C480.962,157.412,480.95,157.707,480.938,157.695z"/>
				</g>
			</g>
		</g>
	</g>
	<g>
		<g>
			<g>
				
					<rect x="143.833" y="386.543" transform="matrix(-1 -1.224647e-16 1.224647e-16 -1 395.9488 856.6037)" style="fill:#F5F5F5;" width="108.283" height="83.518"/>
			</g>
			<g>
				<g>
					<path style="fill:#EBEBEB;" d="M170.963,469.471c0.149,0,0.271-18.616,0.271-41.575c0-22.967-0.121-41.579-0.271-41.579
						c-0.15,0-0.271,18.612-0.271,41.579C170.692,450.855,170.813,469.471,170.963,469.471z"/>
				</g>
			</g>
			<g>
				
					<rect x="153.014" y="451.051" transform="matrix(-1 -1.224647e-16 1.224647e-16 -1 314.3293 911.4858)" style="fill:#FAFAFA;" width="8.301" height="9.384"/>
			</g>
			<g>
				<rect x="206.782" y="386.758" style="fill:#EBEBEB;" width="12.3" height="17.821"/>
			</g>
			<g>
				<rect x="206.782" y="451.991" style="fill:#EBEBEB;" width="12.3" height="17.821"/>
			</g>
		</g>
	</g>
	<g>
		<g>
			<g>
				<rect x="245.755" y="364.269" style="fill:#EBEBEB;" width="136.701" height="105.436"/>
			</g>
			<g>
				<g>
					<path style="fill:#E0E0E0;" d="M348.206,468.96c-0.15,0-0.271-23.502-0.271-52.486c0-28.994,0.121-52.491,0.271-52.491
						s0.271,23.496,0.271,52.491C348.477,445.459,348.356,468.96,348.206,468.96z"/>
				</g>
			</g>
			<g>
				<rect x="360.385" y="445.706" style="fill:#FAFAFA;" width="10.48" height="11.847"/>
			</g>
			<g>
				<rect x="287.458" y="364.541" style="fill:#E0E0E0;" width="15.528" height="22.498"/>
			</g>
			<g>
				<rect x="287.458" y="446.893" style="fill:#E0E0E0;" width="15.528" height="22.498"/>
			</g>
		</g>
	</g>
</g>
<g id="Background_Simple" style="display:none;">
	<g style="display:inline;">
		<path style="fill:#F5F5F5;" d="M352.242,347.844l-0.066-2.284c-0.554-19.25-11.358-36.802-28.512-45.162
			c-2.205-1.075-4.488-1.991-6.834-2.731c-16.886-5.33-36.454-1.387-50.168,10.109c-8.065,6.761-14.566,16.128-24.494,19.492
			c-12.92,4.378-26.468-2.951-38.032-10.006c-11.564-7.055-25.141-14.354-38.042-9.919c-8.08,2.777-14.142,9.811-17.983,17.495
			c-10.17,20.345-6.44,45.821,6.074,64.54c12.514,18.719,32.673,31.211,54.02,38.231c29.904,9.834,63.86,9.477,92.231-4.752
			C328.808,408.628,350.447,379.577,352.242,347.844z"/>
	</g>
</g>
<g id="Floor">
	<g>
		<g>
			<path style="fill:#263238;" d="M460.967,470.916c0,0.144-94.461,0.26-210.957,0.26c-116.537,0-210.977-0.116-210.977-0.26
				c0-0.144,94.44-0.26,210.977-0.26C366.506,470.655,460.967,470.772,460.967,470.916z"/>
		</g>
	</g>
</g>
<g id="Plant">
	<g>
		<g>
			<g>
				<path style="fill:#263238;" d="M91.851,441.134c0,0-4.34-29.835-3.978-47.193c0.362-17.358-0.021-36.887-0.021-36.887h2
					c0,0-1.354,34.455,0.12,55.235c1.473,20.764,5.353,28.845,5.353,28.845H91.851"/>
			</g>
			<g>
				<path style="fill:#455A64;" d="M104.777,323.486c-0.402-1.019-0.896-2.081-1.822-2.668c-1.269-0.804-2.932-0.47-4.348,0.031
					c-6.042,2.137-11.398,13.402-13.84,19.327l8.022,27.028C107.267,353.773,109.774,336.152,104.777,323.486z"/>
			</g>
			<g>
				<g>
					<path style="fill:#263238;" d="M102.487,321.912c0.01,0.005-0.03,0.126-0.116,0.353c-0.103,0.259-0.233,0.585-0.393,0.985
						c-0.352,0.85-0.845,2.087-1.435,3.622c-1.182,3.069-2.686,7.36-4.032,12.194c-1.34,4.837-2.262,9.29-2.832,12.529
						c-0.286,1.62-0.501,2.934-0.638,3.844c-0.069,0.425-0.126,0.771-0.171,1.046c-0.043,0.239-0.071,0.363-0.082,0.362
						c-0.011-0.001-0.006-0.129,0.016-0.37c0.029-0.277,0.065-0.627,0.11-1.055c0.098-0.916,0.278-2.237,0.535-3.865
						c0.511-3.255,1.4-7.729,2.744-12.579c1.349-4.847,2.893-9.139,4.133-12.191c0.619-1.527,1.146-2.752,1.534-3.588
						c0.183-0.39,0.332-0.708,0.45-0.961C102.416,322.02,102.476,321.908,102.487,321.912z"/>
				</g>
			</g>
			<g>
				<path style="fill:#455A64;" d="M89.224,373.685c-7.519-4.154-11.95-11.97-12.363-20.55c-0.289-5.998,1.554-11.883,3.642-17.513
					c0.181-0.488,0.396-1.015,0.849-1.271c0.631-0.357,1.42-0.039,2.05,0.319c5.463,3.111,8.774,9.042,10.535,15.078
					c1.172,4.016,1.779,8.251,1.237,12.399C94.631,366.294,92.26,370.807,89.224,373.685"/>
			</g>
			<g>
				<g>
					<path style="fill:#263238;" d="M89.224,373.685c-0.011,0-0.021-0.125-0.029-0.362c-0.005-0.274-0.012-0.617-0.02-1.038
						c-0.002-0.9-0.039-2.203-0.113-3.81c-0.145-3.215-0.566-7.645-1.396-12.486c-0.834-4.841-1.846-9.176-2.592-12.309
						c-0.368-1.533-0.669-2.79-0.89-3.71c-0.094-0.41-0.17-0.745-0.231-1.012c-0.049-0.232-0.07-0.356-0.059-0.358
						c0.011-0.003,0.053,0.115,0.123,0.342c0.077,0.263,0.173,0.592,0.291,0.996c0.247,0.867,0.589,2.126,0.992,3.686
						c0.804,3.121,1.854,7.455,2.691,12.31c0.832,4.854,1.218,9.307,1.303,12.532c0.044,1.613,0.045,2.919,0.008,3.82
						c-0.017,0.421-0.031,0.764-0.042,1.038C89.247,373.561,89.235,373.686,89.224,373.685z"/>
				</g>
			</g>
			<g style="opacity:0.3;">
				<g>
					<path d="M89.224,373.685c-7.519-4.154-11.95-11.97-12.363-20.55c-0.289-5.998,1.554-11.883,3.642-17.513
						c0.181-0.488,0.396-1.015,0.849-1.271c0.631-0.357,1.42-0.039,2.05,0.319c5.463,3.111,8.774,9.042,10.535,15.078
						c1.172,4.016,1.779,8.251,1.237,12.399C94.631,366.294,92.26,370.807,89.224,373.685"/>
				</g>
			</g>
			<g>
				<path style="fill:#455A64;" d="M97.706,419.334c7.4,1.626,13.493,6.845,20.632,9.383c4.723,1.679,10.065,2.273,13.836,5.576
					c-0.905-2.285-3.05-3.806-5.134-5.108c-5.871-3.667-12.157-6.668-18.7-8.927c-3.359-1.16-7.003-2.129-10.425-1.174"/>
			</g>
			<g>
				<path style="fill:#455A64;" d="M87.007,425.927c-9.267-0.149-19.025-8.039-28.249-8.51
					C68.411,414.3,82.233,416.846,87.007,425.927"/>
			</g>
			<g>
				<path style="fill:#455A64;" d="M90.628,403.696c4.706-1.696,9.873-1.777,14.815-1.008c4.943,0.768,9.717,2.353,14.464,3.931
					c-0.475-3.215-3.079-5.633-5.526-7.773c-1.841-1.61-3.696-3.231-5.808-4.464c-2.112-1.233-4.522-2.068-6.965-1.965
					c-2.948,0.125-5.754,1.646-7.688,3.875C91.988,398.52,90.948,400.763,90.628,403.696"/>
			</g>
			<g>
				<path style="fill:#455A64;" d="M71.609,393.464c-5.834-4.981-14.67-4.493-22.338-4.321
					c11.788,5.636,24.491,13.363,34.644,21.589C84.226,405.31,78.978,399.755,71.609,393.464z"/>
			</g>
			<g style="opacity:0.3;">
				<g>
					<path d="M71.609,393.464c-5.834-4.981-14.67-4.493-22.338-4.321c11.788,5.636,24.491,13.363,34.644,21.589
						C84.226,405.31,78.978,399.755,71.609,393.464z"/>
				</g>
			</g>
			<g>
				<path style="fill:#455A64;" d="M93.252,386.589c2.933-1.956,5.901-3.82,8.971-5.215c3.071-1.395,5.935-3.617,8.901-5.223
					c3.845-2.082,7.177-4.977,10.706-7.558c3.53-2.581,7.407-4.912,11.726-5.595c-3.522-0.727-7.202-0.33-10.671,0.617
					c-3.469,0.947-6.765,2.43-10.044,3.908c-4.551,2.05-9.181,4.15-12.9,7.478C96.221,378.329,92.859,381.613,93.252,386.589"/>
			</g>
			<g>
				<g>
					<path style="fill:#263238;" d="M118.169,425.927c-0.006,0.01-0.107-0.034-0.293-0.127c-0.219-0.113-0.486-0.252-0.809-0.419
						c-0.698-0.371-1.7-0.922-2.962-1.556c-0.624-0.33-1.316-0.674-2.068-1.026c-0.743-0.369-1.551-0.733-2.406-1.103
						c-1.711-0.731-3.622-1.494-5.706-1.989c-2.078-0.51-4.148-0.622-5.944-0.149c-0.906,0.219-1.76,0.435-2.519,0.752
						c-0.762,0.309-1.441,0.67-2.033,1.044c-1.188,0.748-2.017,1.54-2.555,2.111c-0.537,0.575-0.798,0.927-0.822,0.909
						c-0.009-0.007,0.048-0.1,0.166-0.273c0.116-0.174,0.303-0.419,0.56-0.723c0.514-0.603,1.331-1.434,2.524-2.221
						c0.595-0.393,1.281-0.774,2.056-1.101c0.773-0.336,1.645-0.567,2.553-0.795c1.836-0.502,3.988-0.395,6.091,0.124
						c2.117,0.503,4.037,1.281,5.752,2.031c0.857,0.38,1.664,0.755,2.405,1.136c0.749,0.364,1.437,0.722,2.056,1.065
						c1.251,0.663,2.237,1.245,2.916,1.651c0.311,0.189,0.568,0.345,0.779,0.473C118.085,425.854,118.174,425.917,118.169,425.927z"
						/>
				</g>
			</g>
			<g>
				<g>
					<path style="fill:#263238;" d="M80.095,421.334c0.008-0.021,0.214,0.04,0.581,0.17c0.368,0.125,0.887,0.347,1.51,0.656
						c1.247,0.616,2.887,1.664,4.428,3.14c1.536,1.481,2.65,3.078,3.315,4.299c0.334,0.61,0.577,1.119,0.716,1.483
						c0.144,0.361,0.214,0.564,0.193,0.573c-0.053,0.023-0.399-0.761-1.111-1.938c-0.709-1.177-1.832-2.723-3.342-4.178
						c-1.514-1.45-3.103-2.51-4.308-3.171C80.872,421.703,80.073,421.389,80.095,421.334z"/>
				</g>
			</g>
			<g>
				<g>
					<path style="fill:#263238;" d="M59.591,392.999c0.004-0.011,0.14,0.03,0.395,0.117c0.287,0.102,0.656,0.233,1.112,0.396
						c0.494,0.182,1.08,0.398,1.754,0.647c0.683,0.254,1.426,0.629,2.265,0.999c3.337,1.515,7.777,4.064,12.065,7.687
						c2.115,1.841,4.027,3.712,5.626,5.54c1.593,1.832,2.942,3.556,3.993,5.059c1.058,1.499,1.861,2.747,2.41,3.611
						c0.26,0.408,0.471,0.737,0.634,0.994c0.144,0.228,0.215,0.351,0.206,0.358c-0.009,0.007-0.099-0.104-0.26-0.32
						c-0.162-0.216-0.397-0.538-0.686-0.961c-0.583-0.843-1.414-2.069-2.493-3.546c-1.072-1.482-2.434-3.182-4.031-4.994
						c-1.604-1.808-3.511-3.661-5.613-5.491c-4.262-3.6-8.653-6.164-11.95-7.727c-0.83-0.382-1.563-0.77-2.237-1.04
						c-0.664-0.268-1.241-0.501-1.728-0.697c-0.447-0.186-0.808-0.336-1.089-0.453C59.716,393.071,59.587,393.009,59.591,392.999z"
						/>
				</g>
			</g>
			<g>
				<g>
					<path style="fill:#263238;" d="M104.534,398.487c-0.006,0.022-0.27-0.013-0.739-0.095c-0.255-0.047-0.537-0.099-0.852-0.157
						c-0.331-0.064-0.718-0.066-1.138-0.109c-1.667-0.121-4.094,0.017-6.369,1.257c-1.148,0.581-2.111,1.365-2.898,2.151
						c-0.8,0.78-1.406,1.593-1.863,2.303c-0.93,1.423-1.217,2.451-1.274,2.431c-0.018-0.005,0.034-0.266,0.188-0.723
						c0.17-0.448,0.433-1.099,0.887-1.832c0.44-0.739,1.039-1.584,1.845-2.394c0.794-0.816,1.778-1.63,2.961-2.229
						c2.346-1.279,4.857-1.381,6.544-1.197c0.426,0.059,0.817,0.078,1.149,0.16c0.313,0.079,0.595,0.15,0.849,0.214
						C104.287,398.388,104.54,398.465,104.534,398.487z"/>
				</g>
			</g>
			<g>
				<g>
					<path style="fill:#263238;" d="M113.848,369.593c0.005,0.01-0.116,0.084-0.351,0.216c-0.267,0.145-0.61,0.331-1.034,0.562
						c-0.899,0.484-2.193,1.199-3.765,2.125c-1.564,0.939-3.408,2.091-5.369,3.493c-1.955,1.405-4.056,3.038-5.994,5.022
						c-0.956,0.998-1.837,2.04-2.451,3.174c-0.607,1.166-1.187,2.292-1.721,3.374c-1.072,2.162-1.944,4.151-2.575,5.861
						c-0.628,1.711-1.02,3.135-1.253,4.127c-0.237,0.992-0.323,1.551-0.355,1.546c-0.011-0.002,0.002-0.143,0.037-0.41
						c0.033-0.268,0.09-0.661,0.192-1.163c0.195-1.005,0.554-2.448,1.158-4.179c0.606-1.73,1.461-3.741,2.521-5.916
						c0.528-1.089,1.104-2.221,1.707-3.389c0.638-1.186,1.533-2.242,2.501-3.255c1.962-2.008,4.081-3.642,6.055-5.04
						c1.98-1.395,3.843-2.531,5.427-3.447c1.592-0.903,2.905-1.588,3.823-2.038c0.436-0.208,0.789-0.376,1.063-0.507
						C113.712,369.637,113.843,369.582,113.848,369.593z"/>
				</g>
			</g>
			<g>
				<g>
					<path style="fill:#263238;" d="M87.862,397.652c-0.023,0.003-0.087-0.275-0.184-0.781c-0.108-0.572-0.244-1.289-0.405-2.141
						c-0.353-1.804-0.893-4.288-1.752-6.954c-0.852-2.669-1.889-4.992-2.647-6.667c-0.36-0.79-0.662-1.454-0.904-1.984
						c-0.211-0.47-0.318-0.735-0.297-0.745c0.02-0.01,0.166,0.235,0.412,0.688c0.246,0.453,0.592,1.114,0.999,1.941
						c0.813,1.652,1.891,3.975,2.75,6.666c0.866,2.686,1.373,5.195,1.668,7.014c0.145,0.911,0.249,1.65,0.303,2.163
						C87.863,397.364,87.884,397.649,87.862,397.652z"/>
				</g>
			</g>
			<g>
				<path style="fill:#455A64;" d="M87.191,376.568c-0.233-3.501-1.373-6.903-3.014-10.005
					c-4.498-8.504-12.952-14.808-22.386-16.694c6.908,10.297,13.817,20.593,20.725,30.889l2.676,5.513
					C87.019,383.276,87.424,380.069,87.191,376.568z"/>
			</g>
		</g>
		<g>
			<g>
				<g>
					<rect x="68.729" y="437.444" style="fill:#FF725E;" width="48.191" height="8.541"/>
				</g>
			</g>
			<g>
				<g>
					<polygon style="fill:#FF725E;" points="72.327,444.291 76.431,470.794 108.424,470.794 113.321,444.291 					"/>
				</g>
			</g>
			<g>
				<g>
					<g>
						<path style="fill:#263238;" d="M116.893,445.996c0,0.094-10.87,0.169-24.276,0.169c-13.411,0-24.278-0.076-24.278-0.169
							c0-0.094,10.868-0.169,24.278-0.169C106.023,445.826,116.893,445.902,116.893,445.996z"/>
					</g>
				</g>
			</g>
		</g>
	</g>
</g>
<g id="Box">
	<g>
		<g>
			<g>
				<g>
					<g>
						<g>
							
								<rect x="233.011" y="406.951" transform="matrix(-1 -1.224647e-16 1.224647e-16 -1 548.6973 877.6682)" style="fill:#FF725E;" width="82.676" height="63.767"/>
						</g>
					</g>
				</g>
				<g>
					<g>
						<g>
							
								<rect x="240.021" y="456.203" transform="matrix(-1 -1.224647e-16 1.224647e-16 -1 486.3795 919.5717)" style="fill:#FAFAFA;" width="6.338" height="7.165"/>
						</g>
					</g>
				</g>
				<g style="opacity:0.3;">
					<g>
						<g>
							<rect x="281.074" y="407.115" style="fill:#FFFFFF;" width="9.391" height="13.606"/>
						</g>
					</g>
				</g>
				<g style="opacity:0.3;">
					<g>
						<g>
							<rect x="281.074" y="456.921" style="fill:#FFFFFF;" width="9.391" height="13.606"/>
						</g>
					</g>
				</g>
			</g>
		</g>
		<g>
			<g>
				<g>
					<g>
						<path style="fill:#263238;" d="M253.646,471.156c-0.25,0-0.452-14.025-0.452-31.322c0-17.302,0.202-31.324,0.452-31.324
							c0.249,0,0.452,14.022,0.452,31.324C254.098,457.132,253.896,471.156,253.646,471.156z"/>
					</g>
				</g>
			</g>
		</g>
	</g>
</g>
<g id="Barcode">
	<g>
		<g>
			<rect x="86.492" y="75.05" style="fill:#263238;" width="4.921" height="189.813"/>
		</g>
		<g>
			<rect x="95.397" y="75.05" style="fill:#263238;" width="4.165" height="189.813"/>
		</g>
		<g>
			<rect x="104.389" y="75.05" style="fill:#263238;" width="15.296" height="156.901"/>
		</g>
		<g>
			<rect x="123.573" y="75.05" style="fill:#263238;" width="3.774" height="156.901"/>
		</g>
		<g>
			<rect x="135.96" y="75.05" style="fill:#263238;" width="3.774" height="156.901"/>
		</g>
		<g>
			<rect x="152.121" y="75.05" style="fill:#263238;" width="3.774" height="156.901"/>
		</g>
		<g>
			<rect x="165.578" y="75.05" style="fill:#263238;" width="3.774" height="156.901"/>
		</g>
		<g>
			<rect x="209.504" y="75.05" style="fill:#263238;" width="3.774" height="156.901"/>
		</g>
		<g>
			<rect x="274.124" y="75.05" style="fill:#263238;" width="8.143" height="184.125"/>
		</g>
		<g>
			<rect x="318.074" y="75.05" style="fill:#263238;" width="3.774" height="156.901"/>
		</g>
		<g>
			<rect x="334.517" y="75.05" style="fill:#263238;" width="3.774" height="156.901"/>
		</g>
		<g>
			<rect x="347.04" y="74.8" style="fill:#263238;" width="9.238" height="193.121"/>
		</g>
		<g>
			<rect x="245.804" y="75.05" style="fill:#263238;" width="3.774" height="156.901"/>
		</g>
		<g>
			<rect x="189.131" y="75.05" style="fill:#263238;" width="7.728" height="156.901"/>
		</g>
		<g>
			<rect x="221.16" y="75.05" style="fill:#263238;" width="7.728" height="156.901"/>
		</g>
		<g>
			<rect x="233.362" y="75.05" style="fill:#263238;" width="7.728" height="156.901"/>
		</g>
		<g>
			<rect x="291.076" y="75.05" style="fill:#263238;" width="7.728" height="156.901"/>
		</g>
		<g>
			<rect x="302.765" y="75.05" style="fill:#263238;" width="7.728" height="156.901"/>
		</g>
		<g>
			<rect x="254.409" y="75.05" style="fill:#263238;" width="14.525" height="156.901"/>
		</g>
		<g>
			<rect x="173.065" y="75.05" style="fill:#263238;" width="11.911" height="156.901"/>
		</g>
		<g>
			<path style="fill:#263238;" d="M121.165,240.533v33.624h-3.459v-30.549h-7.926v-3.074H121.165z"/>
			<path style="fill:#263238;" d="M153.323,259.699c1.136,1.409,1.705,3.106,1.705,5.092c0,1.953-0.528,3.658-1.585,5.115
				c-1.057,1.458-2.57,2.578-4.54,3.362c-1.969,0.785-4.283,1.177-6.941,1.177c-4.035,0-7.205-0.864-9.51-2.594
				c-2.306-1.729-3.459-4.083-3.459-7.06c0-2.018,0.552-3.723,1.657-5.116c1.104-1.393,2.714-2.441,4.827-3.146
				c-1.729-0.673-3.042-1.641-3.939-2.906c-0.897-1.265-1.345-2.762-1.345-4.491c0-2.722,1.064-4.883,3.194-6.484
				c2.129-1.601,4.987-2.402,8.574-2.402c2.37,0,4.443,0.36,6.221,1.081c1.777,0.721,3.162,1.753,4.155,3.098
				c0.992,1.345,1.489,2.914,1.489,4.707c0,1.73-0.465,3.227-1.393,4.491c-0.929,1.266-2.258,2.233-3.987,2.906
				C150.561,257.233,152.186,258.289,153.323,259.699z M148.952,269.69c1.681-1.217,2.521-2.866,2.521-4.948
				c0-2.081-0.84-3.722-2.521-4.923c-1.681-1.201-4.011-1.802-6.989-1.802c-2.946,0-5.259,0.601-6.94,1.802
				c-1.681,1.201-2.522,2.842-2.522,4.923c0,2.114,0.833,3.772,2.498,4.972c1.665,1.201,3.987,1.802,6.965,1.802
				C144.941,271.515,147.271,270.907,148.952,269.69z M135.862,253.646c1.473,1.09,3.506,1.634,6.1,1.634
				c2.594,0,4.635-0.544,6.125-1.634c1.489-1.088,2.233-2.545,2.233-4.37c0-1.89-0.761-3.379-2.281-4.468
				c-1.521-1.088-3.547-1.633-6.077-1.633c-2.562,0-4.587,0.545-6.076,1.633c-1.489,1.089-2.233,2.563-2.233,4.419
				C133.653,251.084,134.389,252.558,135.862,253.646z"/>
			<path style="fill:#263238;" d="M180.533,244.64c2.369,2.93,3.555,7.069,3.555,12.417c0,3.746-0.641,6.917-1.921,9.511
				c-1.281,2.594-3.074,4.556-5.38,5.884c-2.306,1.329-4.996,1.993-8.07,1.993c-3.331,0-5.988-0.607-7.974-1.825l1.393-2.786
				c1.601,1.057,3.778,1.585,6.533,1.585c3.714,0,6.628-1.177,8.742-3.53c2.113-2.354,3.17-5.772,3.17-10.255
				c0-0.832-0.048-1.745-0.144-2.738c-0.833,1.825-2.162,3.242-3.987,4.251c-1.825,1.009-3.923,1.514-6.292,1.514
				c-2.21,0-4.171-0.416-5.884-1.249c-1.713-0.832-3.05-2.01-4.011-3.53c-0.961-1.521-1.441-3.291-1.441-5.308
				c0-2.05,0.496-3.859,1.489-5.428c0.992-1.569,2.361-2.778,4.107-3.626c1.745-0.848,3.706-1.273,5.884-1.273
				C174.752,240.245,178.163,241.71,180.533,244.64z M175.177,256.769c1.297-0.641,2.313-1.52,3.05-2.643
				c0.736-1.12,1.105-2.369,1.105-3.746c0-1.28-0.345-2.466-1.033-3.555c-0.689-1.089-1.706-1.969-3.05-2.642
				c-1.345-0.673-2.947-1.009-4.803-1.009c-2.434,0-4.412,0.665-5.932,1.993c-1.521,1.329-2.282,3.099-2.282,5.308
				c0,2.21,0.76,3.971,2.282,5.284c1.521,1.314,3.578,1.969,6.172,1.969C172.383,257.729,173.88,257.409,175.177,256.769z"/>
			<path style="fill:#263238;" d="M198.305,240.533v33.624h-3.459v-30.549h-7.926v-3.074H198.305z"/>
			<path style="fill:#263238;" d="M225.803,256.937c2.226,1.745,3.338,4.187,3.338,7.325c0,1.953-0.456,3.698-1.369,5.235
				c-0.913,1.537-2.282,2.746-4.107,3.626c-1.825,0.882-4.067,1.321-6.725,1.321c-2.402,0-4.684-0.392-6.845-1.177
				c-2.162-0.784-3.899-1.833-5.212-3.147l1.681-2.737c1.121,1.152,2.594,2.089,4.419,2.81c1.825,0.721,3.794,1.081,5.908,1.081
				c2.786,0,4.939-0.625,6.461-1.873c1.521-1.249,2.282-2.914,2.282-4.996c0-2.306-0.857-4.051-2.57-5.235
				c-1.713-1.185-4.604-1.777-8.67-1.777h-7.157l1.73-16.86h18.397v3.074h-15.371l-1.153,10.712h4.323
				C220.031,254.319,223.577,255.192,225.803,256.937z"/>
			<path style="fill:#263238;" d="M239.973,272.379c-2.034-1.376-3.619-3.354-4.755-5.932c-1.137-2.578-1.706-5.612-1.706-9.103
				c0-3.49,0.568-6.524,1.706-9.103c1.136-2.577,2.721-4.555,4.755-5.932c2.033-1.376,4.347-2.065,6.941-2.065
				c2.594,0,4.907,0.689,6.941,2.065c2.033,1.377,3.627,3.355,4.779,5.932c1.153,2.578,1.729,5.612,1.729,9.103
				c0,3.49-0.576,6.525-1.729,9.103c-1.152,2.578-2.746,4.556-4.779,5.932c-2.034,1.377-4.347,2.065-6.941,2.065
				C244.32,274.445,242.007,273.756,239.973,272.379z M252.078,269.641c1.489-1.088,2.649-2.673,3.482-4.755
				c0.832-2.081,1.249-4.595,1.249-7.541c0-2.946-0.417-5.46-1.249-7.541c-0.833-2.082-1.993-3.667-3.482-4.756
				c-1.489-1.088-3.21-1.633-5.164-1.633c-1.954,0-3.674,0.544-5.164,1.633c-1.489,1.089-2.65,2.674-3.482,4.756
				c-0.833,2.081-1.248,4.595-1.248,7.541c0,2.946,0.415,5.46,1.248,7.541c0.833,2.082,1.994,3.667,3.482,4.755
				c1.489,1.09,3.21,1.634,5.164,1.634C248.868,271.275,250.588,270.731,252.078,269.641z"/>
		</g>
		<g>
			<path style="fill:#263238;" d="M314.52,240.176v2.329l-13.377,29.632h-3.561l13.149-29.038h-16.436v5.981h-3.242v-8.904H314.52z"
				/>
			<path style="fill:#263238;" d="M340.681,269.214v2.922h-22.418v-2.328l13.287-13.013c1.673-1.643,2.808-3.066,3.401-4.27
				c0.594-1.201,0.89-2.411,0.89-3.629c0-1.888-0.646-3.356-1.94-4.406c-1.294-1.05-3.143-1.575-5.547-1.575
				c-3.744,0-6.651,1.187-8.721,3.561l-2.328-2.009c1.247-1.461,2.838-2.587,4.771-3.379c1.933-0.791,4.116-1.187,6.552-1.187
				c3.257,0,5.837,0.769,7.739,2.306c1.902,1.538,2.854,3.646,2.854,6.324c0,1.643-0.365,3.227-1.096,4.748
				c-0.73,1.522-2.116,3.272-4.154,5.251l-10.867,10.684H340.681z"/>
		</g>
	</g>
</g>
<g id="Character_1_">
	<g>
		<g>
			<g>
				<g>
					<polygon style="fill:#FF725E;" points="283.111,163.229 263.144,185.785 290.321,196.138 310.473,171.549 					"/>
				</g>
				<g>
					<path style="fill:#FF725E;" d="M310.473,171.549c0,0,57.682,59.9,57.127,60.27c-0.555,0.37-17.009,20.152-17.009,20.152
						l-60.27-55.833L310.473,171.549z"/>
				</g>
				<g>
					<polygon style="fill:#FF725E;" points="263.144,185.785 320.641,241.063 350.592,251.971 290.321,196.138 					"/>
				</g>
				<g style="opacity:0.3;">
					<polygon points="263.144,185.785 320.641,241.063 350.592,251.971 290.321,196.138 					"/>
				</g>
				<g style="opacity:0.3;">
					<polygon style="fill:#FFFFFF;" points="283.111,163.229 263.144,185.785 290.321,196.138 310.473,171.549 					"/>
				</g>
			</g>
			<g>
				<path style="fill:#FFBF9D;" d="M338.925,201.018c0,0,6.578,0.248,7.322,0.993c0.745,0.745,6.578,12.535,6.578,12.535
					l1.986,1.241l0.563,17.539l-17.489,1.535l-5.896,3.51l-5.813-0.525c-0.991-0.049-1.804-0.804-1.926-1.789l-0.467-3.764
					c0,0,2.396-0.566,2.995,1.155l0.219,0.812l3.223,0.236l3.442-2.544l0.224-1.347l-11.224,0.748l-4.639-3.292
					c0,0,1.983-2.486,3.977-1.454c0.475,0.246,0.623,0.204,1.532,0.745l9.381-2.21l-18.1,0.176c0,0-0.329-3.715,3.583-3.835
					c2.771-0.085,9.803-0.83,9.803-0.83s5.387-0.449,5.612-2.245c0.224-1.796-15.189-5.911-15.938-7.857
					c-0.748-1.945,0.15-3.891,3.741-2.768c3.591,1.122,13.917,5.537,16.835,5.313c2.918-0.225,5.537-2.843,5.687-3.966
					c0.15-1.122-1.496-4.714-1.496-4.714S338.65,204.129,338.925,201.018z"/>
			</g>
			<g>
				<path style="fill:#FFFFFF;" d="M291.221,165.695c-0.263-0.08-7.937,8.654-7.937,8.654l5.894,1.804l8.304-8.554L291.221,165.695z
					"/>
			</g>
			<g>
				<g>
					<path style="fill:#263238;" d="M273.399,189.691c-0.107-0.096,4.505-5.379,10.299-11.798
						c5.796-6.421,10.58-11.546,10.687-11.45c0.107,0.096-4.504,5.378-10.301,11.799
						C278.291,184.661,273.506,189.788,273.399,189.691z"/>
				</g>
			</g>
			<g>
				<g>
					<path style="fill:#263238;" d="M333.274,245.664c-0.097,0.106-13.58-12.079-30.112-27.212
						c-16.537-15.139-29.86-27.493-29.763-27.599c0.097-0.106,13.577,12.076,30.115,27.215
						C320.045,233.201,333.371,245.558,333.274,245.664z"/>
				</g>
			</g>
			<g>
				<g>
					<path style="fill:#455A64;" d="M360.634,171.003l2.59,2.96c0.186,14.627,15.087,35.018,15.087,35.018l7.838-33.176
						l-2.849-12.664l-8.548-0.988l-3.364-4.488L360.634,171.003z"/>
				</g>
				<g>
					<g>
						<path style="fill:#FF725E;" d="M347.432,139.294c-3.09,0.921-7.645,5.64-11.597,10.039c-1.898,2.112-0.858,5.803,1.149,7.812
							l2.566,2.568c0.858,0.859,1.982,1.4,3.189,1.534l0,0c1.412,0.157,2.829-0.254,3.937-1.143l1.785-1.432
							c2.239-1.796,5.497-1.503,7.379,0.664l7.431,8.554c2.049,2.359,5.676,2.464,7.858,0.229l0.034-0.035
							c1.897-1.943,2.036-4.999,0.323-7.106l-16.588-20.402c-0.439-0.539-0.971-0.994-1.585-1.32
							C352.111,138.616,350.325,138.431,347.432,139.294z"/>
					</g>
					<g>
						<path style="fill:#FFBF9D;" d="M346.865,159.952c0,0,1.812,1.448,2.635,1.742c0,0-1.467,2.064-0.056,3.475
							c1.41,1.41,3.391,1.625,3.391,1.625s-0.251,2.875,2.746,3.58c2.997,0.705,11.351-0.518,11.645-1.282
							c0.294-0.764,1.02-2.842-0.92-3.312c-1.939-0.47-4.553-0.46-4.553-0.46s3.956-1.472,1.61-4.645
							c-1.076-1.456-5.902-0.015-5.902-0.015l-3.613,0.411c0,0,3.305-2.328,0.729-4.674c-1.732-1.577-3.018,0-3.018,0
							L346.865,159.952z"/>
					</g>
					<g>
						<path style="fill:#FFBF9D;" d="M361.502,154.069c0,0-2.921-0.375-2.247-2.172c0.674-1.798,2.846-4.644,3.895-5.693
							c1.049-1.049,2.247-1.423,3.146-1.049c0.899,0.374,3.97,2.697,4.494,5.393c0.524,2.697,1.049,5.843,0.599,7.116
							c-0.449,1.273-0.886,2.021-0.886,2.021l-5.147-6.33C365.357,153.355,362.733,154.415,361.502,154.069z"/>
					</g>
					<g>
						<g>
							<path style="fill:#263238;" d="M350.692,157.093c-0.045-0.017,0.113-0.577,0.439-1.578l-0.008,0.045
								c-0.02-0.471-0.146-1.054-0.501-1.609c-0.342-0.54-0.98-1.046-1.563-1.667c-1.228-1.243-2.614-2.645-4.093-4.142
								c-1.118-1.032-2.726-1.27-3.963-0.856c-0.637,0.194-1.14,0.542-1.627,0.934c-0.473,0.373-0.921,0.727-1.343,1.06
								c-0.736,0.6-1.374,1.122-1.922,1.569c-0.457,0.373-0.687,0.58-0.706,0.574c-0.095-0.083,0.814-1.036,2.39-2.424
								c0.395-0.348,0.832-0.724,1.312-1.117c0.458-0.395,1.048-0.829,1.746-1.051c1.374-0.491,3.198-0.241,4.463,0.926
								c1.527,1.533,2.88,2.971,4.066,4.214c0.566,0.641,1.172,1.138,1.556,1.79c0.368,0.638,0.466,1.289,0.448,1.799l-0.001,0.028
								l-0.007,0.017C350.98,156.58,350.737,157.109,350.692,157.093z"/>
						</g>
					</g>
					<g>
						<g>
							<path style="fill:#263238;" d="M357.286,150.512c0.107,0.089-0.91,1.467-2.432,2.922c-1.518,1.459-2.939,2.416-3.023,2.305
								c-0.091-0.117,1.166-1.243,2.663-2.681C355.994,151.624,357.174,150.416,357.286,150.512z"/>
						</g>
					</g>
				</g>
				<g>
					<g>
						<path style="fill:#FF9A6C;" d="M355.184,160.885c0.022,0.142-1.238,0.458-2.815,0.705c-1.578,0.247-2.874,0.333-2.896,0.191
							c-0.022-0.142,1.238-0.458,2.816-0.705C353.865,160.828,355.161,160.743,355.184,160.885z"/>
					</g>
				</g>
				<g>
					<g>
						<path style="fill:#FF9A6C;" d="M362.637,165.078c0.054,0.122-2.029,1.082-4.792,1.605c-2.762,0.535-5.051,0.412-5.047,0.278
							c-0.003-0.154,2.242-0.264,4.949-0.79C360.455,165.66,362.582,164.933,362.637,165.078z"/>
					</g>
				</g>
				<g>
					<g>
						<path style="fill:#FF9A6C;" d="M367.656,149.286c0.135-0.03,0.266,1.347-0.652,2.676c-0.903,1.34-2.232,1.721-2.254,1.584
							c-0.066-0.139,1.026-0.681,1.823-1.878C367.397,150.49,367.503,149.275,367.656,149.286z"/>
					</g>
				</g>
				<g>
					<g>
						<path style="fill:#263238;" d="M337.253,153.547c0,0,3.793,5.33,5.492,5.433c1.194,0.072,3.001-2.053,3.97-3.323
							c0.396-0.519,0.334-1.25-0.135-1.704l-4.106-3.981l-0.958-0.255L337.253,153.547z"/>
					</g>
					<g style="opacity:0.6;">
						<path style="fill:#FFFFFF;" d="M337.449,153.389l-25.046,20.166l23.369,24.359l11.092-42.51
							c0.171-0.486,0.161-0.956-0.163-1.333l-4.227-4.1l-0.958-0.255L337.449,153.389L337.449,153.389z"/>
					</g>
				</g>
			</g>
			<g>
				<g>
					<g>
						<g>
							<g>
								<g>
									<g>
										<g>
											<g>
												<g>
													<g>
														<g>
															<g>
																<g>
																	<g>
																		<g>
																			<g>
																				<g>
																					<g>
																						<g>
																							<path style="fill:#FFBF9D;" d="M431.043,86.035l-2.768,46.475c-0.471,7.903-2.777,19.417-15.239,18.103l0,0
																								c-10.726-1.956-12.857-12.396-12.41-19.771c0.212-3.498,0.381-6.416,0.38-6.777
																								c0,0-11.765-1.818-11.922-13.578c-0.076-5.683,0.721-17.402,1.565-27.996
																								c0.906-11.377,10.411-20.144,21.824-20.156l1.134-0.001C425.845,63.037,432.084,73.822,431.043,86.035z"/>
																						</g>
																					</g>
																				</g>
																			</g>
																		</g>
																	</g>
																</g>
															</g>
														</g>
													</g>
												</g>
											</g>
										</g>
									</g>
								</g>
							</g>
						</g>
					</g>
					<g>
						<g>
							<g>
								<g>
									<g>
										<g>
											<g>
												<g>
													<g>
														<g>
															<g>
																<g>
																	<g>
																		<g>
																			<g>
																				<g>
																					<g>
																						<g>
																							<path style="fill:#FF9A6C;" d="M401.006,124.065c0,0,7.414,0.427,15.309-4.542c0,0-3.727,8.594-15.464,7.547
																								L401.006,124.065z"/>
																						</g>
																					</g>
																				</g>
																			</g>
																		</g>
																	</g>
																</g>
															</g>
														</g>
													</g>
												</g>
											</g>
										</g>
									</g>
								</g>
							</g>
						</g>
					</g>
					<g>
						<g>
							<g>
								<g>
									<g>
										<g>
											<g>
												<g>
													<g>
														<g>
															<g>
																<g>
																	<g>
																		<g>
																			<g>
																				<g>
																					<g>
																						<g>
																							<g>
																								<g>
																									<g>
																										<g>
																											<path style="fill:#263238;" d="M410.288,88.721c0.215,0.253,1.643-0.736,3.606-0.647
																												c1.961,0.059,3.355,1.155,3.579,0.917c0.109-0.105-0.101-0.554-0.707-1.049
																												c-0.597-0.492-1.629-0.989-2.852-1.036c-1.223-0.045-2.271,0.373-2.883,0.82
																												C410.406,88.175,410.182,88.607,410.288,88.721z"/>
																										</g>
																									</g>
																								</g>
																							</g>
																						</g>
																					</g>
																				</g>
																			</g>
																		</g>
																	</g>
																</g>
															</g>
														</g>
													</g>
												</g>
											</g>
										</g>
									</g>
								</g>
							</g>
						</g>
					</g>
					<g>
						<g>
							<g>
								<g>
									<g>
										<g>
											<g>
												<g>
													<g>
														<g>
															<g>
																<g>
																	<g>
																		<g>
																			<g>
																				<g>
																					<g>
																						<g>
																							<g>
																								<g>
																									<g>
																										<path style="fill:#263238;" d="M409.509,94.414c-0.029,0.839,0.658,1.555,1.534,1.601
																											c0.874,0.046,1.607-0.595,1.636-1.434c0.029-0.839-0.658-1.556-1.532-1.602
																											C410.272,92.933,409.538,93.575,409.509,94.414z"/>
																									</g>
																								</g>
																							</g>
																						</g>
																					</g>
																				</g>
																			</g>
																		</g>
																	</g>
																</g>
															</g>
														</g>
													</g>
												</g>
											</g>
										</g>
									</g>
								</g>
							</g>
						</g>
					</g>
					<g>
						<g>
							<g>
								<g>
									<g>
										<g>
											<g>
												<g>
													<g>
														<g>
															<g>
																<g>
																	<g>
																		<g>
																			<g>
																				<g>
																					<g>
																						<g>
																							<g>
																								<g>
																									<g>
																										<path style="fill:#263238;" d="M404.401,101.99c0.009-0.103-1.115-0.296-2.936-0.527
																											c-0.462-0.047-0.898-0.138-0.976-0.453c-0.109-0.333,0.084-0.831,0.307-1.368
																											c0.433-1.117,0.886-2.288,1.361-3.516c1.891-5.005,3.258-9.121,3.056-9.195
																											c-0.202-0.074-1.899,3.922-3.789,8.928c-0.455,1.234-0.89,2.411-1.304,3.536
																											c-0.174,0.525-0.474,1.12-0.237,1.812c0.125,0.344,0.464,0.594,0.759,0.674
																											c0.296,0.09,0.556,0.095,0.784,0.108C403.258,102.086,404.395,102.093,404.401,101.99z"/>
																									</g>
																								</g>
																							</g>
																						</g>
																					</g>
																				</g>
																			</g>
																		</g>
																	</g>
																</g>
															</g>
														</g>
													</g>
												</g>
											</g>
										</g>
									</g>
								</g>
							</g>
						</g>
					</g>
					<g>
						<g>
							<g>
								<g>
									<g>
										<g>
											<g>
												<g>
													<g>
														<g>
															<g>
																<g>
																	<g>
																		<g>
																			<g>
																				<g>
																					<g>
																						<path style="fill:#E0E0E0;" d="M410.262,82.518c0.201,0.43,1.764,0.059,3.648,0.104
																							c1.885,0.005,3.442,0.417,3.649-0.007c0.091-0.203-0.213-0.596-0.863-0.966
																							c-0.645-0.37-1.646-0.683-2.776-0.699c-1.13-0.014-2.134,0.273-2.783,0.626
																							C410.481,81.928,410.173,82.313,410.262,82.518z"/>
																					</g>
																				</g>
																			</g>
																		</g>
																	</g>
																</g>
															</g>
														</g>
													</g>
												</g>
											</g>
										</g>
									</g>
								</g>
							</g>
						</g>
					</g>
					<g>
						<g>
							<g>
								<g>
									<g>
										<g>
											<g>
												<g>
													<g>
														<g>
															<g>
																<g>
																	<g>
																		<g>
																			<g>
																				<g>
																					<g>
																						<path style="fill:#E0E0E0;" d="M392.453,83.246c0.18,0.369,1.736,0.086,3.592,0.162
																							c1.859,0.043,3.376,0.424,3.598,0.068c0.098-0.17-0.184-0.51-0.809-0.838
																							c-0.619-0.327-1.593-0.613-2.707-0.65c-1.113-0.035-2.116,0.188-2.771,0.475
																							C392.696,82.75,392.375,83.07,392.453,83.246z"/>
																					</g>
																				</g>
																			</g>
																		</g>
																	</g>
																</g>
															</g>
														</g>
													</g>
												</g>
											</g>
										</g>
									</g>
								</g>
							</g>
						</g>
					</g>
					<g>
						<g>
							<g>
								<g>
									<g>
										<g>
											<g>
												<g>
													<g>
														<g>
															<g>
																<g>
																	<g>
																		<path style="fill:#FFBF9D;" d="M430.091,94.744c0.201-0.087,8.079-2.398,7.83,5.643
																			c-0.249,8.041-8.27,6.132-8.277,5.901C429.637,106.057,430.091,94.744,430.091,94.744z"/>
																	</g>
																</g>
															</g>
														</g>
													</g>
												</g>
											</g>
										</g>
									</g>
								</g>
							</g>
						</g>
					</g>
					<g>
						<g>
							<g>
								<g>
									<g>
										<g>
											<g>
												<g>
													<g>
														<g>
															<g>
																<g>
																	<g>
																		<g>
																			<path style="fill:#FF9A6C;" d="M432.194,103.318c0.036-0.025,0.137,0.102,0.37,0.218
																				c0.228,0.113,0.622,0.198,1.047,0.054c0.859-0.286,1.616-1.612,1.7-3.06c0.043-0.731-0.089-1.433-0.33-2.017
																				c-0.228-0.596-0.595-1.019-1.021-1.108c-0.422-0.112-0.733,0.135-0.838,0.358
																				c-0.115,0.221-0.069,0.383-0.112,0.396c-0.023,0.019-0.168-0.14-0.093-0.47c0.038-0.159,0.138-0.346,0.332-0.494
																				c0.198-0.151,0.484-0.222,0.781-0.181c0.619,0.062,1.159,0.65,1.425,1.292c0.299,0.646,0.465,1.435,0.416,2.256
																				c-0.102,1.619-0.978,3.109-2.151,3.409c-0.57,0.13-1.037-0.055-1.274-0.253
																				C432.203,103.513,432.166,103.332,432.194,103.318z"/>
																		</g>
																	</g>
																</g>
															</g>
														</g>
													</g>
												</g>
											</g>
										</g>
									</g>
								</g>
							</g>
						</g>
					</g>
					<g>
						<g>
							<g>
								<g>
									<g>
										<g>
											<path style="fill:#E0E0E0;" d="M441.686,82.533c-1.467-2.948-1.613-6.35-2.299-9.57
												c-0.686-3.221-2.208-6.616-5.222-7.941l-0.072,0.025c-2.697-1.317-6.121-1.58-8.54,0.184
												c-0.265-4.207-3.68-7.77-7.67-9.13c-3.99-1.36-10.559-1.193-14.573,0.096c-3.103,0.996-6.197,3.273-10.004,6.671
												c-1.604,1.432-3.099,2.989-4.448,4.663l-4.323,10.666l2.617,5.945c0.153,0.403,0.313,0.806,0.511,1.208l0.004-0.026
												l1.863,12.266c0.41-3.279,0.995-14.744,1.405-18.023c5.095,0.147,9.837-1.572,13.516-5.1
												c1.941-1.861,3.534-4.254,6.024-5.271c3.21-1.31,6.825,0.072,10.01,1.442l-0.129-0.135
												c1.643,0.908,3.11,2.136,4.293,3.594c-1.202,6.426-1.005,13.111,0.585,19.453c0.24,0.955,0.937,2.938,1.828,3.358
												c1.75,0.826,2.367-0.973,3.521-1.869c0.849-0.66,2.039-0.667,3.333-0.57c0.904-1.945,1.93-5.258,2.8-8.161
												c1.063,0.408,2.216,0.581,3.349,0.467c-0.285-0.851-0.571-1.702-0.857-2.553c0.428,0.316,0.873,0.64,1.393,0.755
												c0.52,0.115,1.138-0.038,1.409-0.496C442.357,83.888,441.993,83.149,441.686,82.533z"/>
										</g>
									</g>
								</g>
							</g>
						</g>
					</g>
					<g>
						<g>
							<g>
								<g>
									<g>
										<g>
											<path style="fill:#FFFFFF;" d="M421.776,66.308c-0.025,0.028,0.467,0.344,1.096,1.157
												c0.622,0.809,1.286,2.186,1.515,4.012c0.12,0.908,0.163,1.917,0.085,2.993c-0.073,1.077-0.242,2.224-0.412,3.433
												c-0.166,1.21-0.346,2.487-0.364,3.828c-0.009,0.669,0.022,1.354,0.118,2.042c0.099,0.677,0.222,1.412,0.684,2.021
												c0.367,0.496,1.022,0.751,1.61,0.674c0.592-0.062,1.134-0.335,1.545-0.732c0.816-0.824,1.084-1.924,1.341-2.892
												l-0.247,0.012c0.337,0.911,0.686,1.812,1.246,2.552c0.549,0.743,1.346,1.266,2.185,1.402
												c0.418,0.068,0.847,0.031,1.221-0.124c0.381-0.153,0.671-0.439,0.877-0.748c0.198-0.316,0.316-0.67,0.323-1.019
												c0.005-0.348-0.107-0.688-0.31-0.936l-0.132,0.102c0.828,1.092,1.74,1.712,2.376,2.065
												c0.321,0.177,0.581,0.288,0.756,0.358c0.178,0.067,0.271,0.096,0.274,0.089c0.003-0.008-0.085-0.051-0.256-0.131
												c-0.169-0.084-0.42-0.207-0.73-0.394c-0.615-0.373-1.496-1.006-2.287-2.087l-0.132,0.102
												c0.363,0.445,0.333,1.179-0.048,1.743c-0.191,0.278-0.457,0.532-0.792,0.661c-0.334,0.135-0.724,0.166-1.105,0.099
												c-0.77-0.133-1.513-0.623-2.027-1.329c-0.527-0.706-0.865-1.584-1.197-2.496l-0.141-0.387l-0.106,0.399
												c-0.258,0.967-0.534,2.021-1.277,2.763c-0.368,0.355-0.865,0.602-1.383,0.654c-0.519,0.062-1.048-0.146-1.369-0.571
												c-0.404-0.527-0.534-1.225-0.629-1.891c-0.094-0.671-0.126-1.341-0.12-2c0.014-1.319,0.186-2.588,0.346-3.797
												c0.163-1.209,0.325-2.362,0.389-3.453c0.069-1.091,0.014-2.114-0.12-3.035c-0.257-1.851-0.964-3.248-1.623-4.049
												C422.29,66.593,421.776,66.308,421.776,66.308z"/>
										</g>
									</g>
								</g>
							</g>
						</g>
					</g>
					<g>
						<g>
							<g>
								<g>
									<g>
										<g>
											<path style="fill:#FFFFFF;" d="M384.784,75.08c-0.003,0.004,0.027,0.033,0.088,0.087c0.075,0.063,0.166,0.14,0.277,0.234
												c0.121,0.105,0.275,0.228,0.472,0.353c0.194,0.131,0.413,0.288,0.684,0.426c1.049,0.594,2.753,1.232,4.94,1.261
												c2.165,0.034,4.809-0.544,7.245-2.098c2.457-1.512,4.685-3.838,6.566-6.551c0.952-1.355,1.75-2.756,2.611-4.042
												c0.856-1.286,1.783-2.466,2.869-3.372c1.074-0.912,2.292-1.555,3.517-1.802c0.611-0.135,1.217-0.132,1.792-0.077
												c0.574,0.072,1.112,0.228,1.604,0.43c0.983,0.411,1.756,1.026,2.332,1.643c0.578,0.623,0.949,1.263,1.196,1.807
												c0.454,1.113,0.434,1.805,0.477,1.797c0.005,0,0.004-0.042-0.001-0.123c-0.008-0.098-0.018-0.217-0.03-0.362
												c-0.034-0.317-0.137-0.781-0.349-1.352c-0.236-0.56-0.602-1.222-1.181-1.869c-0.578-0.641-1.361-1.284-2.37-1.718
												c-0.504-0.214-1.058-0.381-1.654-0.461c-0.594-0.064-1.23-0.071-1.863,0.063c-1.272,0.247-2.531,0.904-3.634,1.832
												c-1.116,0.922-2.065,2.122-2.93,3.416c-0.871,1.294-1.669,2.692-2.613,4.034c-1.866,2.692-4.063,4.994-6.474,6.493
												c-2.392,1.542-4.974,2.126-7.11,2.118c-2.152-0.004-3.838-0.602-4.891-1.161
												C385.297,75.519,384.808,75.048,384.784,75.08z"/>
										</g>
									</g>
								</g>
							</g>
						</g>
					</g>
					<g>
						<g>
							<g>
								<g>
									<g>
										<g>
											<g>
												<g>
													<g>
														<path style="fill:#263238;" d="M392.382,88.172c0.215,0.253,1.643-0.736,3.606-0.648
															c1.961,0.059,3.355,1.154,3.579,0.917c0.109-0.105-0.101-0.554-0.707-1.049c-0.597-0.492-1.63-0.99-2.852-1.036
															c-1.223-0.045-2.271,0.373-2.883,0.82C392.499,87.626,392.275,88.059,392.382,88.172z"/>
													</g>
												</g>
											</g>
										</g>
									</g>
								</g>
							</g>
						</g>
					</g>
					<g>
						<g>
							<g>
								<g>
									<g>
										<g>
											<g>
												<g>
													<path style="fill:#263238;" d="M393.509,94.041c-0.029,0.839,0.658,1.555,1.534,1.601
														c0.874,0.046,1.607-0.595,1.636-1.434c0.029-0.839-0.658-1.556-1.532-1.602
														C394.271,92.56,393.537,93.202,393.509,94.041z"/>
												</g>
											</g>
										</g>
									</g>
								</g>
							</g>
						</g>
					</g>
					<g>
						<g>
							<g>
								<g>
									<g>
										<g>
											<path style="fill:#E0E0E0;" d="M389.934,66.254c-1.074,1.256-2.677,2.363-4.307,2.09
												c-0.481-0.081-1.715-0.616-1.715-0.616c-0.593,0.313-0.575,2.283-0.213,2.847c0.363,0.564,1.154,1.345,1.154,1.345
												c-1.985,0.92-3.707,0.307-5.714-0.566c0.154,3.513,2.341,6.865,5.495,8.421c1.008,0.497,2.249,0.808,3.227,0.254
												c0.861-0.487,1.263-1.494,1.57-2.435c1.129-3.454,1.828-7.048,2.077-10.674L389.934,66.254z"/>
										</g>
									</g>
								</g>
							</g>
						</g>
					</g>
				</g>
				<g>
					<g>
						<path style="fill:#263238;" d="M403.724,108.526c-0.016,0.067,0.431,0.257,1.205,0.253c0.763,0.001,1.863-0.254,2.813-0.995
							c0.949-0.743,1.462-1.749,1.646-2.489c0.191-0.75,0.114-1.23,0.046-1.231c-0.088-0.007-0.158,0.447-0.429,1.103
							c-0.264,0.653-0.777,1.512-1.614,2.167c-0.838,0.654-1.795,0.944-2.493,1.042
							C404.195,108.481,403.738,108.439,403.724,108.526z"/>
					</g>
				</g>
			</g>
			<g>
				<g>
					<g>
						<g>
							<g>
								<g>
									<g>
										<g>
											<g>
												<g>
													<g>
														<g>
															<g>
																<g>
																	<g>
																		<g>
																			<path style="fill:#455A64;" d="M394.914,425.884l6.963,24.711c0,0-22.178,15.55-21.325,20.245l47.251-12.11
																				l-9.306-38.958L394.914,425.884z"/>
																		</g>
																	</g>
																</g>
															</g>
														</g>
													</g>
												</g>
											</g>
										</g>
									</g>
								</g>
							</g>
							<g>
								<g>
									<g>
										<g>
											<g>
												<g>
													<g>
														<g>
															<g>
																<g>
																	<g>
																		<g>
																			<g>
																				<path style="fill:#E0E0E0;" d="M415.975,444.753c0.977,0.022,1.866,0.913,1.885,1.914
																					c0.019,1.001-0.858,1.935-1.836,1.931c-0.977-0.004-2.077-1.041-1.986-2.038
																					c0.091-0.997,1.179-2.036,2.126-1.792"/>
																			</g>
																		</g>
																	</g>
																</g>
															</g>
														</g>
													</g>
												</g>
											</g>
										</g>
									</g>
								</g>
							</g>
							<g>
								<g>
									<g>
										<g>
											<g>
												<g>
													<g>
														<g>
															<g>
																<g>
																	<g>
																		<g>
																			<path style="fill:#263238;" d="M427.802,458.729l-1.088-3.889l-44.897,13.065c0,0-1.874,1.477-1.266,2.934
																				L427.802,458.729z"/>
																		</g>
																	</g>
																</g>
															</g>
														</g>
													</g>
												</g>
											</g>
										</g>
									</g>
								</g>
							</g>
							<g>
								<g>
									<g>
										<g>
											<g>
												<g>
													<g>
														<g>
															<g>
																<g>
																	<g>
																		<g>
																			<g>
																				<path style="fill:#263238;" d="M401.689,450.715c0.065,0.235,1.245,0.046,2.566,0.515
																					c1.333,0.434,2.168,1.308,2.358,1.16c0.202-0.1-0.488-1.425-2.097-1.965
																					C402.912,449.871,401.586,450.511,401.689,450.715z"/>
																			</g>
																		</g>
																	</g>
																</g>
															</g>
														</g>
													</g>
												</g>
											</g>
										</g>
									</g>
								</g>
							</g>
							<g>
								<g>
									<g>
										<g>
											<g>
												<g>
													<g>
														<g>
															<g>
																<g>
																	<g>
																		<g>
																			<g>
																				<path style="fill:#263238;" d="M397.431,454.227c0.003,0.243,1.1,0.388,2.128,1.187
																					c1.051,0.768,1.512,1.798,1.74,1.729c0.226-0.018,0.048-1.444-1.249-2.412
																					C398.763,453.752,397.381,454.001,397.431,454.227z"/>
																			</g>
																		</g>
																	</g>
																</g>
															</g>
														</g>
													</g>
												</g>
											</g>
										</g>
									</g>
								</g>
							</g>
							<g>
								<g>
									<g>
										<g>
											<g>
												<g>
													<g>
														<g>
															<g>
																<g>
																	<g>
																		<g>
																			<g>
																				<path style="fill:#263238;" d="M395.759,461.076c0.222-0.003,0.255-1.267-0.654-2.409
																					c-0.901-1.15-2.113-1.381-2.163-1.16c-0.083,0.228,0.787,0.743,1.519,1.693
																					C395.215,460.132,395.524,461.112,395.759,461.076z"/>
																			</g>
																		</g>
																	</g>
																</g>
															</g>
														</g>
													</g>
												</g>
											</g>
										</g>
									</g>
								</g>
							</g>
							<g>
								<g>
									<g>
										<g>
											<g>
												<g>
													<g>
														<g>
															<g>
																<g>
																	<g>
																		<g>
																			<g>
																				<path style="fill:#263238;" d="M400.074,444.733c0.149,0.191,1.128-0.407,2.454-0.65
																					c1.322-0.271,2.446-0.083,2.516-0.316c0.092-0.205-1.112-0.826-2.671-0.517
																					C400.814,443.546,399.915,444.576,400.074,444.733z"/>
																			</g>
																		</g>
																	</g>
																</g>
															</g>
														</g>
													</g>
												</g>
											</g>
										</g>
									</g>
								</g>
							</g>
						</g>
					</g>
				</g>
				<g>
					<g>
						<g>
							<g>
								<g>
									<g>
										<g>
											<g>
												<g>
													<g>
														<g>
															<g>
																<g>
																	<g>
																		<g>
																			<path style="fill:#455A64;" d="M410.605,427.506l0.733,27.008c0,0-26.459,11.388-26.879,16.326l52.456-0.419
																				l-0.113-43.196L410.605,427.506z"/>
																		</g>
																	</g>
																</g>
															</g>
														</g>
													</g>
												</g>
											</g>
										</g>
									</g>
								</g>
							</g>
							<g>
								<g>
									<g>
										<g>
											<g>
												<g>
													<g>
														<g>
															<g>
																<g>
																	<g>
																		<g>
																			<g>
																				<path style="fill:#E0E0E0;" d="M427.988,452.721c1.017,0.276,1.728,1.44,1.5,2.493
																					c-0.228,1.053-1.377,1.803-2.399,1.545c-1.022-0.258-1.917-1.628-1.575-2.648
																					c0.341-1.02,1.737-1.826,2.669-1.324"/>
																			</g>
																		</g>
																	</g>
																</g>
															</g>
														</g>
													</g>
												</g>
											</g>
										</g>
									</g>
								</g>
							</g>
							<g>
								<g>
									<g>
										<g>
											<g>
												<g>
													<g>
														<g>
															<g>
																<g>
																	<g>
																		<g>
																			<path style="fill:#263238;" d="M436.932,470.839l-0.195-4.772l-50.228,2.029c0,0-2.327,1.06-2.051,2.743H436.932
																				z"/>
																		</g>
																	</g>
																</g>
															</g>
														</g>
													</g>
												</g>
											</g>
										</g>
									</g>
								</g>
							</g>
							<g>
								<g>
									<g>
										<g>
											<g>
												<g>
													<g>
														<g>
															<g>
																<g>
																	<g>
																		<g>
																			<g>
																				<path style="fill:#263238;" d="M411.845,455.16c0.01,0.262,1.292,0.371,2.559,1.205
																					c1.288,0.8,1.947,1.932,2.182,1.826c0.236-0.053-0.158-1.618-1.709-2.6
																					C413.334,454.594,411.787,454.919,411.845,455.16z"/>
																			</g>
																		</g>
																	</g>
																</g>
															</g>
														</g>
													</g>
												</g>
											</g>
										</g>
									</g>
								</g>
							</g>
							<g>
								<g>
									<g>
										<g>
											<g>
												<g>
													<g>
														<g>
															<g>
																<g>
																	<g>
																		<g>
																			<g>
																				<path style="fill:#263238;" d="M406.057,457.562c-0.057,0.255,1.056,0.692,1.935,1.795
																					c0.91,1.076,1.139,2.275,1.394,2.261c0.241,0.039,0.406-1.499-0.711-2.849
																					C407.568,457.409,406.061,457.311,406.057,457.562z"/>
																			</g>
																		</g>
																	</g>
																</g>
															</g>
														</g>
													</g>
												</g>
											</g>
										</g>
									</g>
								</g>
							</g>
							<g>
								<g>
									<g>
										<g>
											<g>
												<g>
													<g>
														<g>
															<g>
																<g>
																	<g>
																		<g>
																			<g>
																				<path style="fill:#263238;" d="M402.831,464.454c0.233,0.054,0.58-1.26-0.089-2.692
																					c-0.659-1.437-1.871-1.994-1.978-1.775c-0.143,0.217,0.641,0.982,1.172,2.166
																					C402.495,463.325,402.577,464.431,402.831,464.454z"/>
																			</g>
																		</g>
																	</g>
																</g>
															</g>
														</g>
													</g>
												</g>
											</g>
										</g>
									</g>
								</g>
							</g>
							<g>
								<g>
									<g>
										<g>
											<g>
												<g>
													<g>
														<g>
															<g>
																<g>
																	<g>
																		<g>
																			<g>
																				<path style="fill:#263238;" d="M411.347,448.576c0.109,0.238,1.282-0.133,2.73-0.044
																					c1.451,0.059,2.581,0.548,2.713,0.322c0.147-0.191-0.961-1.154-2.668-1.234
																					C412.415,447.526,411.22,448.37,411.347,448.576z"/>
																			</g>
																		</g>
																	</g>
																</g>
															</g>
														</g>
													</g>
												</g>
											</g>
										</g>
									</g>
								</g>
							</g>
						</g>
					</g>
				</g>
				<g>
					<g>
						<g>
							<g>
								<g>
									<g>
										<g>
											<g>
												<g>
													<g>
														<path style="fill:#263238;" d="M438.765,245.664l1.711,12.468c0.555,4.046,0.562,8.149,0.019,12.197l-1.157,8.633
															c0,0-2.328,64.465-2.44,62.107c0,0,1.255,47.269,2.198,57.304c1.712,18.233,0.173,51.732,0.173,51.732h-29.826
															l-10.744-105.892l-6.668-66.04l-11.601-30.057L438.765,245.664z"/>
													</g>
												</g>
											</g>
										</g>
									</g>
								</g>
							</g>
						</g>
					</g>
					<g>
						<g>
							<g>
								<g>
									<g>
										<g>
											<g>
												<g>
													<g>
														<path style="fill:#263238;" d="M368.543,248.666l0.328,12.615l1.794,91.71c0.243,4.304,1.082,8.553,2.495,12.626
															l24.428,70.445l1.395,4.823l17.94-4.443l-13.342-189.509L368.543,248.666z"/>
													</g>
												</g>
											</g>
										</g>
									</g>
								</g>
							</g>
						</g>
					</g>
					<g>
						<g>
							<g>
								<g>
									<g>
										<g>
											<g>
												<g>
													<g>
														<g>
															<path style="fill:#455A64;" d="M392.111,278.962c-0.01,0-0.013,0.151-0.01,0.445
																c0.006,0.321,0.015,0.753,0.025,1.304c0.036,1.178,0.086,2.861,0.151,5.014c0.121,4.355,0.426,10.651,0.857,18.428
																c0.906,15.55,2.596,37.01,5.231,60.626c2.594,23.628,5.459,44.951,7.553,60.378
																c1.063,7.688,1.925,13.92,2.525,18.263c0.306,2.131,0.546,3.796,0.713,4.962c0.084,0.544,0.15,0.971,0.199,1.288
																c0.048,0.29,0.077,0.438,0.087,0.436c0.009-0.001-0.001-0.152-0.03-0.444c-0.036-0.319-0.083-0.748-0.144-1.296
																c-0.143-1.169-0.348-2.839-0.609-4.976c-0.559-4.349-1.36-10.589-2.35-18.288
																c-1.993-15.44-4.795-36.767-7.389-60.387c-2.635-23.607-4.386-45.049-5.393-60.587
																c-0.482-7.77-0.847-14.061-1.035-18.412c-0.11-2.151-0.196-3.832-0.256-5.008c-0.034-0.55-0.061-0.982-0.081-1.302
																C392.136,279.112,392.121,278.962,392.111,278.962z"/>
														</g>
													</g>
												</g>
											</g>
										</g>
									</g>
								</g>
							</g>
						</g>
					</g>
				</g>
				<g>
					<g>
						<path style="fill:#263238;" d="M411.338,450.205c0.032,0,0.063,0.399,0.091,1.138c0.02,0.833,0.046,1.891,0.077,3.171
							l-0.334-0.027c-0.012,0.025-0.001,0.127,0.076,0.169c0.076,0.036,0.098,0.018,0.088,0.022l0.009,0
							c0.007-0.001,0.012-0.003,0.004,0l-0.026,0.009l-0.065,0.027l-0.138,0.062l-0.285,0.136c-0.194,0.096-0.392,0.194-0.595,0.295
							c-0.41,0.208-0.838,0.425-1.284,0.651c-0.903,0.464-1.875,0.964-2.906,1.494c-2.086,1.078-4.406,2.277-6.854,3.542
							c-4.398,2.332-8.517,4.216-11.098,6.177c-1.294,0.968-2.238,1.889-2.757,2.624c-0.546,0.724-0.643,1.227-0.675,1.219
							c-0.042,0.004-0.004-0.551,0.507-1.333c0.484-0.795,1.413-1.779,2.701-2.803c2.584-2.078,6.693-4.019,11.083-6.347
							c2.456-1.271,4.791-2.458,6.88-3.499c1.041-0.512,2.023-0.995,2.936-1.443c0.452-0.215,0.887-0.422,1.303-0.621
							c0.207-0.095,0.41-0.188,0.608-0.279l0.295-0.13l0.149-0.061l0.078-0.03l0.047-0.015l0.042-0.009l0.027-0.003
							c-0.007,0.003,0.019-0.013,0.097,0.024c0.08,0.044,0.093,0.148,0.084,0.174l-0.359,1.034l0.026-1.061
							c0.031-1.281,0.057-2.338,0.077-3.171C411.275,450.604,411.306,450.205,411.338,450.205z"/>
					</g>
				</g>
			</g>
			<g>
				<g style="opacity:0.3;">
					<path d="M368.969,266.324c0,0,9.763,5.271,28.049,7.348c26.127,2.968,43.857-10.726,43.857-10.726l-1.366-11.853l-70.54,4.651
						V266.324z"/>
				</g>
				<g>
					<path style="fill:#FF725E;" d="M442.009,139.839c8.879,12.386,5.134,42.812,5.134,42.812l-4.15,63.504l-0.004,7.512
						c0,0,0.318,6.184-22.099,13.657c-22.416,7.472-55.534-5.605-55.534-5.605s6.087-46.337,10.545-72.054
						c0.583-3.361,1.172-6.5,1.757-9.416c3.492-17.416,11.831-33.487,24.007-46.42l0.209-0.222l27.201-6.408
						C429.075,127.198,436.637,132.345,442.009,139.839z"/>
				</g>
				<g>
					<path style="fill:#E0E0E0;" d="M366.312,254.544c0,0,22.34,11.016,42.305,8.354c19.965-2.662,34.375-13.439,34.375-13.439v6.97
						c0,0-15.809,13.215-37.594,13.2c-21.785-0.015-40.041-7.911-40.041-7.911L366.312,254.544z"/>
				</g>
				<g>
					<polygon style="fill:#E0E0E0;" points="373.849,202.169 445.545,207.11 444.469,224.132 371.687,216.372 					"/>
				</g>
				<g style="opacity:0.3;">
					<path d="M368.182,240.887c0,0,6.366,4.788,20.593,2.201c14.226-2.587,36.862-5.821,41.821-10.132
						c4.958-4.312,7.9-10.564,8.477-17.678s-0.996-40.8-0.996-40.8l-23.003,41.016l-45.598,16.168L368.182,240.887z"/>
				</g>
				<g>
					<path style="fill:#455A64;" d="M425.068,133.606c6.895-0.003,14.25,11.145,15.001,17.688c0.751,6.543-1.902,59.283-2.98,65.29
						c-2.168,12.077-12.104,14.213-12.104,14.213s-23.817,6.876-39.846,8.128c-16.03,1.252-27.408-5.283-27.408-5.283l-3.894,0.248
						l0.974-20.063l4.044,0.677l43.972-10.77c0,0-2.804-45.083-2.554-45.834C400.272,157.901,402.526,133.618,425.068,133.606z"/>
				</g>
				<g>
					<g>
						<path style="fill:#263238;" d="M361.156,213.941c-0.004-0.018,0.203-0.086,0.601-0.2c0.453-0.123,1.032-0.28,1.747-0.475
							c1.587-0.406,3.774-0.967,6.448-1.651c5.514-1.36,13.023-3.211,21.319-5.257c4.073-1.012,7.954-1.976,11.496-2.856
							l0.129-0.032l0.096,0.09c1.023,0.964,2.022,1.883,2.996,2.729c0.955,0.866,1.977,1.526,2.932,2.213
							c1.907,1.343,3.506,2.68,4.619,3.982c1.124,1.291,1.829,2.455,2.267,3.267c0.218,0.407,0.369,0.729,0.465,0.949
							c0.095,0.22,0.135,0.338,0.124,0.344c-0.028,0.014-0.25-0.43-0.723-1.215c-0.477-0.78-1.213-1.906-2.35-3.148
							c-1.127-1.253-2.716-2.535-4.633-3.847c-0.944-0.66-2.012-1.334-2.99-2.203c-0.992-0.844-2-1.755-3.036-2.718l0.224,0.058
							c-3.54,0.892-7.42,1.87-11.491,2.896c-8.311,1.988-15.832,3.788-21.355,5.109c-2.691,0.618-4.891,1.124-6.487,1.491
							c-0.725,0.155-1.311,0.281-1.77,0.38C361.376,213.924,361.161,213.958,361.156,213.941z"/>
					</g>
				</g>
				<g>
					<path style="fill:#455A64;" d="M422.936,131.95c-1.645-0.212-27.547,9.673-30.675,37.924
						c-0.971,8.774,0.023,28.148,10.968,31.25c10.945,3.102,32.967-6.424,32.967-6.424s10.247-37.107,7.932-43.788
						C441.813,144.232,432.421,133.171,422.936,131.95z"/>
				</g>
				<g>
					<g>
						<path style="fill:#263238;" d="M403.823,156.311c0.018,0.001,0.024,0.168,0.02,0.485c-0.012,0.377-0.027,0.833-0.044,1.383
							c-0.058,1.281-0.135,2.997-0.229,5.079c-0.195,4.288-0.428,10.212-0.557,16.758c-0.127,6.548-0.134,12.478-0.126,16.77
							c0.001,2.084,0.001,3.801,0.002,5.084c-0.008,0.55-0.014,1.006-0.02,1.383c-0.01,0.316-0.024,0.483-0.042,0.483
							c-0.018,0.001-0.039-0.165-0.063-0.481c-0.021-0.376-0.047-0.832-0.078-1.381c-0.058-1.2-0.116-2.937-0.167-5.084
							c-0.102-4.294-0.153-10.229-0.026-16.785c0.13-6.553,0.421-12.482,0.71-16.768c0.145-2.143,0.28-3.876,0.394-5.072
							c0.056-0.547,0.103-1.001,0.142-1.376C403.777,156.474,403.806,156.31,403.823,156.311z"/>
					</g>
				</g>
				<g style="opacity:0.3;">
					<path d="M397.019,182.514c-0.343,10.564,5.638,21.262,5.638,21.262l0.966-44.497
						C399.272,162.895,397.303,173.764,397.019,182.514z"/>
				</g>
				<g>
					<path style="fill:#E0E0E0;" d="M422.62,129.651c-12.714,2.55-25.31,13.259-33.519,26.66
						c-8.209,13.401-10.704,49.086-10.704,49.086l8.232,0.273c0,0-3.484-20.161,5.346-45.05
						c8.83-24.889,30.712-29.273,30.712-29.273L422.62,129.651z"/>
				</g>
				<g>
					<g>
						<path style="fill:#263238;" d="M440.069,151.294c0.018,0,0.034,0.189,0.049,0.549c0.01,0.419,0.023,0.94,0.039,1.576
							c0.028,1.369,0.02,3.35-0.019,5.797c-0.075,4.895-0.376,11.652-0.804,19.104c-0.428,7.455-0.787,14.201-0.956,19.088
							c-0.076,2.388-0.139,4.347-0.185,5.788c-0.024,0.636-0.043,1.156-0.059,1.575c-0.019,0.36-0.038,0.549-0.056,0.549
							s-0.034-0.189-0.049-0.549c-0.01-0.419-0.023-0.94-0.039-1.576c-0.028-1.369-0.02-3.349,0.019-5.797
							c0.075-4.895,0.376-11.653,0.805-19.107c0.428-7.452,0.787-14.198,0.956-19.085c0.076-2.388,0.139-4.348,0.185-5.789
							c0.024-0.636,0.043-1.156,0.059-1.575C440.032,151.483,440.051,151.294,440.069,151.294z"/>
					</g>
				</g>
				<g>
					<g>
						<path style="fill:#263238;" d="M429.075,137.905c-0.043,0.096-1.426-0.692-3.88-1.238c-2.425-0.556-6.015-0.718-9.62,0.578
							c-3.603,1.302-6.264,3.718-7.777,5.693c-1.542,1.986-2.104,3.476-2.198,3.429c-0.028-0.012,0.087-0.389,0.376-1.042
							c0.287-0.653,0.78-1.568,1.528-2.608c1.468-2.074,4.171-4.617,7.895-5.962c3.725-1.339,7.428-1.106,9.881-0.446
							c1.24,0.324,2.203,0.714,2.841,1.033C428.76,137.66,429.09,137.878,429.075,137.905z"/>
					</g>
				</g>
				<g>
					<polygon style="fill:#455A64;" points="398.534,131.347 429.862,123.265 430.361,128.135 418.221,130.015 396.052,140.358 
											"/>
				</g>
				<g>
					<path style="fill:#E0E0E0;" d="M422.817,131.347c0,0,20.261,3.825,23.648,19.947c0,0-1.225-8.688-5.75-13.168
						c-9.127-9.036-18.094-8.475-18.094-8.475L422.817,131.347z"/>
				</g>
			</g>
			<g>
				<g>
					<path style="fill:#263238;" d="M422.556,129.218c0.142-0.024,0.317,0.567,0.39,1.321c0.073,0.754,0.015,1.368-0.129,1.371
						s-0.319-0.588-0.39-1.321C422.356,129.857,422.414,129.242,422.556,129.218z"/>
				</g>
			</g>
		</g>
	</g>
</g>
</svg>
